<svg xmlns="http://www.w3.org/2000/svg" viewBox="0 0 3525 1066"><path fill="#255b4b" d="M555 2.1c-3.6 1.4-6.9 4.8-9.2 9.3-1.7 3.4-2 5.2-1.5 13 1.4 22.8 2.8 67 3.7 122.1l2 88c.5 15.4.9 42.8 1 61 .1 54.4 2.2 69.6 10.7 77.7 6 5.7 13.7 7.2 20.8 3.9 10.5-4.7 13.8-15.9 8.8-29.4-1.3-3.5-1.7-13-2.4-55.7l-1.8-86.5-2.1-94c-1.2-69.2-2.8-93.4-6.4-100.3-4.5-8.5-14.9-12.5-23.6-9.1zm980.9 35.2c-5.4 3.6-7.7 9.4-8.9 23.3-1.2 12.5-.8 18.6 2.5 46.9 3.7 31.1 6.6 61.8 8 85.5 2.4 39.6 4.3 55.8 10 84.5 4.1 20.4 5.2 29.4 6 48.5.7 16.1 3.5 35.3 5.8 39.7 6.1 11.6 20.8 14.4 29.8 5.6 6.4-6.1 6.9-11 3.5-29.8-.9-4.4-1.5-12.1-1.6-17.1 0-10.2-1.6-27.3-3.5-38.2-.6-3.9-.9-7.2-.5-7.2.3 0 5.5-.6 11.6-1.4 6-.8 16.5-2 23.4-2.5l16.9-1.7 4.4-.7-.8 29.4c-1.2 42.6-1.1 47.8.8 51.5 3.1 6.1 10.6 10.4 17.7 10.4 3.4 0 10-3.2 12.7-6.1 5.2-5.7 5.3-6.3 5.9-60.2l.6-50.2-2.4-4.5c-1.6-2.9-4.1-5.5-7.2-7.4-4.3-2.7-5.5-2.9-13.4-2.9-4.8.1-11.4.8-14.7 1.7-3.2.9-6.2 1.6-6.6 1.6-.3 0-.9-7.5-1.3-16.7-.7-18.4-2.8-35.3-5.1-42.4-.9-2.5-2.9-6.6-4.4-9.1-5.1-8.1-10.8-7.2-15.7 2.4-5.3 10.5-7.3 22.6-8.3 51.3l-.6 18-10.3 1.3c-5.7.8-10.5 1.2-10.7 1-.7-.7-3.5-29.6-4.5-47.3-1.8-30.4-4.8-59-11-103.5-1-7.4-2.2-18-2.5-23.5-.9-14.4-2.3-21.5-5-25.6-4.4-6.8-14.1-9-20.6-4.6zm1049.6 119.4c-5.3.9-6.7 1.5-9.9 4.4-6.7 5.8-6.8 6.2-6.2 56.4.7 60.8 2 110.6 3.1 113 1.7 4.2 5.8 8.6 9.8 10.6 3.9 2 5.9 2.2 39.2 2.6 25.2.2 38 .8 45.8 2 8.6 1.3 11.6 1.4 14.7.4 4.8-1.4 9.5-5.3 11.7-9.5 2.1-4 2.2-13.6.1-16.8-1-1.5-1.7-6.2-2.2-13.8-.4-6.3-1.3-17.4-2.1-24.5-.8-7.2-1.9-20.4-2.5-29.5-.5-9.1-1.6-23-2.5-31-.8-8-1.8-21.6-2.3-30.2-.8-14.6-1.1-16-3.5-19.7-1.5-2.3-4.6-5.3-6.8-6.8-3.8-2.5-4.9-2.7-18.2-3.1-9.9-.3-17.6.1-25.2 1.2-6.1.9-14.4 1.6-18.6 1.6-6.4 0-7.9-.3-9.5-2.1-3.3-3.7-9.9-6-14.9-5.2zm59.5 46.8c0 2.5.9 12.6 1.9 22.3 1.1 9.7 2.2 23.5 2.6 30.7.4 7.1 1.5 20.9 2.6 30.5l1.9 18.7c0 1.5-6.8 1.6-29.7.7l-15-.7-.6-22.6c-.4-12.4-1.1-25.5-1.7-29.1-.5-3.6-1-16.7-1-29.1v-22.6l10.8-.7c5.9-.4 12.3-1.1 14.2-1.5 1.9-.5 5.9-.9 8.8-1l5.2-.1v4.5zm-745.9-45.6c-4.2 1.1-8 3.9-10.8 8-3.1 4.5-3.5 12.2-3.1 52.3l.3 34.6 3 4.3c1.7 2.4 4.6 5.2 6.5 6.3 3.4 2 4.6 2.1 57.1 1.7l53.6-.3.6 19.3 1.3 26 .7 6.7-6.9-.4c-27.4-1.5-42.8-2.7-54.9-4.4-7.7-1.1-17.4-2.1-21.5-2.2l-7.5-.3-.5-11.7c-.5-11.2-.7-11.9-3.6-15.5-4.5-5.6-8.7-7.5-15.7-7-5.1.3-6.2.8-9.7 4.2-2.2 2.1-4.5 5.5-5.2 7.4-.7 2.3-1.2 11.3-1.2 24.6-.1 22.6.2 24.2 5.6 29.2 4.7 4.4 8.8 5.3 24 5.3 8.8 0 19.5.8 27.8 1.9 31.3 4.5 81.7 7 93.7 4.5 2.9-.6 9-5.9 10.7-9.3 2.2-4.3 2.7-12.9 1.5-25.6-.6-6.6-1.4-26-1.7-43-.8-34.6-.8-34.6-8.3-40.7-5.4-4.3-10.9-4.7-65.6-4.8H1921v-18-18h3.4c4 0 37.2 3.7 43.1 4.8l4 .8.5 8.5c.5 7.4.9 9.1 3.3 12.2 4.9 6.5 14.8 7.4 19.9 1.9 4.1-4.4 4.7-6.4 5.4-18.3.3-6.3 1.2-13.1 2-15.2 1.9-4.9 1.8-10.1-.2-14-4.3-8.5-8.5-10.3-25.5-11.6-7.4-.6-18.8-1.8-25.4-2.6-13.9-1.8-47.4-2.8-52.4-1.6zm613.9 3.6c-3.6.7-9.4 2.4-13 3.8-3.6 1.3-10.8 3.2-16 4.2-29.3 5.2-34.2 6.8-40.2 13.2-4.5 4.8-5 7.4-5.5 33.8-.6 25.3-.3 30.1 4.8 78.4.5 5.2 1.4 15.9 1.9 23.8 1.1 16 2.5 20.3 8.2 24.6 7.2 5.4 9.8 5.7 49.8 5.7 21.9 0 38.9-.4 41.8-1 5.5-1.2 11.4-5.6 14-10.3 1.4-2.7 1.7-6.1 1.7-22.2 0-13.3-.4-20.1-1.3-22.8-4.9-13.8-22.3-18.2-31.8-8-4.6 4.9-5.6 8.9-4.9 18l.7 8.3h-21.9-22l-1.2-12.8c-.7-7-2.4-21.7-3.8-32.7-1.3-11-2.7-28.6-3-39l-.6-19.1 10-1.2c9.1-1 24.3-4.1 28.6-5.7 1.5-.6 1.7 0 1.7 6.3 0 3.9.5 8.3 1.1 9.9 2.4 6.4 10.9 12.2 17.8 12.3 5.2 0 11.8-3.7 14.9-8.3l2.7-4.1v-21.7-21.7l-3-4.3c-4.3-6.1-10.2-8.9-18.4-8.8-3.6 0-9.5.7-13.1 1.4zm206.1 3.3c-1.9.9-4.8 3.4-6.5 5.5-3 3.8-3.1 4-4 20.5-.9 17-.3 31.4 2.8 64.7.8 8.2 1.7 19.9 2.1 26 1 17.6 6.2 47.2 9.1 52.2 2.7 4.6 10.7 9.3 15.8 9.3 4.4-.1 10.8-3.2 13.9-6.9 5.3-6.3 5.6-11.9 1.7-32.6-1-5.5-2.4-16.8-3-25-.6-8.3-1.8-22-2.7-30.5-.8-8.5-1.7-21-2-27.8l-.5-12.2h11.6c8.5 0 11.8.3 12 1.2 1.3 4.3 5.7 27.7 6.5 34.8 1.4 11.1 3.1 42.5 4 72.5.6 22.8.8 24.3 3 27.9 6.2 10 19.5 12.6 27.8 5.3 7.1-6.3 7.3-7.5 6.3-40.2-1.5-48.2-4.1-75-8.9-92.5-1.2-4.1-1.9-7.5-1.8-7.7.2-.2 4.4 0 9.3.3l9 .7 7.2 18.1c8.7 21.5 15.4 42.1 17.7 53.7 1.5 7.9 4.4 21.3 8 37.5 1.9 8.4 4 12.2 9 15.9 3.8 2.9 11 4.3 16 3.1 3.8-1 10.2-7.2 11.5-11.2 2.2-6.5 1.2-16.5-3.1-32.9-1-3.9-2.7-11.8-3.9-17.8-3.3-17.3-16.8-57.8-23.7-71.1-.9-1.7-2-7.1-2.4-11.9-.8-10.5-3.5-15.4-10.2-18.9-3.7-1.9-6.4-2.2-24.7-2.9-11.3-.4-34.7-.8-52.1-.8-30.8-.1-31.6-.2-33.5-2.2-5.1-5.6-14.8-7.5-21.3-4.1zM1332 172.1l-31 1.9c-10.7.6-26 1.8-34 2.6s-27.9 1.7-44.3 2.1c-29 .6-29.9.5-32.6-1.5-6-4.4-13.8-4.6-19.8-.5-1.5 1.1-4.9 3-7.4 4.2-9.4 4.4-13.3 15.4-8.9 24.6 1.3 2.7 3.8 5.6 6 7.1 3.7 2.4 3.8 2.7 4.9 11.2.6 4.8 1.8 21.3 2.6 36.7 2.4 44.3 4.4 65.4 8.1 87.4l5 31c.8 5.8 2.5 12.6 3.6 15 5.9 12.2 24 13.8 31.7 2.6 4.4-6.5 4.8-12.7 1.6-27.5-1.5-7-5.9-31.5-7.4-42-1.4-9.1-2.9-24.8-4.1-42.5-1.5-22.4-4-51.1-5-58.5-1.6-11.1-3.6-10 17.8-10h18.8l1.2 24.7c1.6 31.4 1.6 92.5.1 103-.7 4.3-1.2 18.4-1.3 31.3-.1 26.7.1 27.8 8.2 33.4 3.5 2.5 5.1 2.9 10.1 2.9 7.4-.1 12.1-2.7 15.6-8.8 2.4-4.1 2.6-5.2 3.5-28.6l2.1-41.9c1.3-17.5 1.3-18.2-1.8-105.7l-.5-12.2 3.4-.5c3-.5 14.7-1.3 45.2-3.2 10.4-.6 10.9-.5 10.1 1.2-.4 1.1-5.5 15.6-11.2 32.4-32 94-35.2 105.6-30.9 113.8 1.7 3.2 6.1 7.4 9.5 9.2 3.1 1.6 12.2 1.6 15.3 0 6.8-3.6 8.8-7.1 13.3-23.3 4.2-15.4 15.2-49.4 19.8-61.2 1.9-5 6.2-17.8 9.7-28.5 3.4-10.7 8.9-26.4 12.2-35 8.5-21.7 9.2-33.1 2.5-40.7-6.5-7.4-12.2-8.2-41.7-6.2zm760.5 1.4c-.5.2-2.2.6-3.7.9-4.1.9-16.5 13.7-17.9 18.6-.9 3-.9 8.2.1 23.2.7 10.6 1.5 43.6 1.9 73.3.8 57.5.8 57.5 5.9 62.8 3.6 3.9 6.9 5.5 12.8 6.2 5.3.7 6.8.4 24.4-4.6l11.5-3.2 41.5-.6 41.5-.6 4.8-2.8c6.3-3.7 9.1-9.1 9.1-17.4 0-5.4-.7-7.5-5.2-16.7-2.9-5.8-5.2-10.9-5.2-11.3 0-.3-1.1-2.1-2.6-4-6.1-8.1-18.4-10-26.6-4.2-3.9 2.8-6.8 8.9-6.8 14.2v4.4l-26.7.6c-18.9.4-28.6 1-32.8 2.1-3.3.8-6.6 1.5-7.2 1.6-1 0-1.3-5.8-1.3-26v-26h24.2c13.3 0 29.3.5 35.5 1.1 12.8 1.3 14.9 1 19.3-2.7 6.1-5.2 6.2-6.1 6.1-34.7-.2-23.7-.4-26.4-2.2-30.7-4-9.4-10.3-12.9-28.5-15.9l-22.4-4c-16.2-3-45-5.1-49.5-3.6zm42.5 40.7l17.3 3 6.7 1.2v4.3 4.3h-25.5-25.5v-5.8c0-3.1-.3-6.7-.6-8l-.7-2.3 8.9.7c4.9.3 13.6 1.5 19.4 2.6zm-696.8-37.1c-5.3 2.7-9 8.7-9.9 16-.7 6.6-8.7 25.9-26.8 65.5-15.6 33.8-18.9 42.1-26.9 66.5-3.7 11.6-7.1 20-9.8 24.5-5.7 9.5-6.3 15.8-1.9 22.6 4.1 6.5 9.5 9.2 17.2 8.6 4.5-.3 6.9-1.1 10.1-3.5 3.3-2.3 6.6-3.4 13.8-4.7 5.5-1 16.2-4.3 25.4-7.7 18.4-6.9 23.7-8.3 40.8-10.5 6.7-.9 13.7-2.2 15.5-2.9l3.1-1.3.4 13.3c.3 13.1.3 13.4 3.4 17.2 1.6 2.1 5 4.8 7.5 6.1 8.3 4.4 18.5 1.2 23.3-7.1 3.4-5.8 3.5-10.1 3.7-93.4l.1-71.3-2.5-4.3c-5.2-8.9-17.8-11.8-26-6-8.9 6.2-9.6 11.8-9.7 71.1v42.3l-2.2-.8c-4.1-1.5-22-.6-33.8 1.6-13.3 2.5-22.5 5.1-32.8 9.2-4 1.6-7.4 2.9-7.7 2.9-.5 0 4.5-14.7 8.3-24 1.6-4.1 7.8-18.1 13.7-31 13.5-29.5 19.2-42.7 24.6-57.1 3.7-10.1 4.2-12.4 4.2-19.9.1-13.2-2.8-18.8-11.5-22.4-5-2.1-8.5-2-13.6.5zm792.9 1.5c-3.2 2.8-4.2 4.6-5.2 9.2-1.4 6.8-.9 11.4 3.6 33.7 1.8 9.3 4.3 26.7 5.5 38.5s3 26.1 4.1 31.7 3 18.9 4.4 29.7c1.3 10.7 3 21.6 3.6 24.2 1.5 5.9 7 11.8 12.4 13.3 3.6 1.1 40.3 3 58.1 3.1h7.1l1.2 11.3c.6 6.2 1.1 20.5 1.1 31.8 0 11.2.5 28.5 1 38.4s.6 18.3.2 18.7c-.8.7-23.5 2.2-57.7 3.8-12.1.6-36.6 2.4-54.5 4l-52 4c-18.6 1-189.4 1.5-191 .5-.4-.2-8.4-.5-17.7-.6l-17-.1-.7-21.7c-.4-11.9-.4-23 0-24.8l.6-3.1 10.2-.5c5.5-.3 50.2-.7 99.1-.9 81-.3 89.6-.5 95.4-2.1 3.5-1 12.4-2.1 19.6-2.6 14.7-1 17.9-2.1 22.1-7.6 5.7-7.6 3.6-18.7-4.6-23.8-3.2-2-4.6-2.2-17.5-2-10.1.1-16.9.8-24.5 2.4-11.9 2.5-22.1 2.7-153.5 3.2l-68 .2-4.7 2.3c-7.8 3.8-11.1 12-8.8 21.2.7 2.7 1.4 20.2 1.8 44 .7 36.8.9 39.8 2.7 42.9 3.4 5.8 6.8 7.6 14.3 7.6 5 0 7.6-.5 10.3-2.1 2.8-1.7 4-1.9 5.5-1.1 3.6 2.1 51.8 3.6 119.5 3.6 86.7.1 111.5-.8 175.9-6.8 11.8-1.1 36.4-2.7 54.5-3.6 48.9-2.2 64-4.5 71-10.6 5.4-4.8 5.9-8 4.6-29.1-.7-10.1-1.4-30-1.7-44.3-.2-14.3-1.1-36.1-1.9-48.5l-2.5-47.5-4-80.9c-1.1-14.2-2.7-18-9.1-21.4-7.4-4-14.9-1.7-19.4 5.9-1.9 3.2-2 5.1-1.9 42.4 0 21.4.4 44.4.8 50.9l.7 11.9-22.7-.6c-12.5-.4-22.9-.9-23.2-1.1-.2-.3-1.5-7.9-2.8-16.8-1.2-9-2.8-18.5-3.4-21.1-.6-2.7-2.6-17.1-4.5-32-1.9-15-4.6-32.2-6-38.2l-5-22.4c-1.3-6.2-3.1-12.4-4-13.8-2.6-3.9-7.5-6.3-12.7-6.3-4.1 0-5.4.5-8.7 3.6zM789.5 178c-9.7 4.8-11.6 15.3-7.1 39.5 7.8 42.5 12.5 91.6 12.6 130.6 0 14.4.9 17.9 5.7 23.1 6.4 6.7 17.3 7.4 23.9 1.5 6.8-5.9 6.9-6.5 6.6-32.7-.3-29.2-1.6-47.7-4.8-68.9l-2.2-16.6c.2 0 1.5-.9 3-1.8s6.1-2.8 10.2-4.2c6.5-2.2 9.2-2.5 20.8-2.5h13.4l3.7 19.7c5.5 29.3 8.3 48.3 10.7 72.3 3.8 38.4 3.5 36.8 6.7 40.9 3.9 4.7 8.7 7.1 14.6 7.1 6.6 0 11.2-2.4 14.9-7.7 2.8-4.1 3-5.2 3-12.2-.1-12.5-5.1-56-9.3-80.6-5.6-33.2-10.7-60.3-11.9-64.1-1.2-3.6-6.7-8.9-10.9-10.6-1.5-.6-12.3-1-26.6-1-25.3.1-33.4 1.1-43.4 5.4-2.4 1-4.6 1.6-4.9 1.4-.6-.7-4.9-20.2-5.7-25.9-1-7.9-8.6-14.7-16.2-14.7-1.5 0-4.6.9-6.8 2zm153.9 1c-5.7 3.7-7 9.9-4.7 23.3 1.5 8.7 1.8 18.1 1.9 66.2.2 54.9.2 56.3 2.8 73.5 3 20 4.7 27.4 7.4 31 6.9 9.2 21.3 8.3 27-1.8 2.7-4.9 2.8-10.4.3-17.9-2.1-6-5.5-28.8-6.5-42.8l-.6-8 18.7-.2c10.4-.1 24.7-.9 31.8-1.7 7.2-.9 15.4-1.6 18.4-1.6h5.4l-.6 20.7c-.3 11.5-1.1 24.8-1.7 29.7-1 7.7-1 9.4.5 13.2 4.4 11.4 18.5 15.8 28.6 8.8 4.5-3.1 6.3-6 7.9-12.5.6-2.4 1.5-24.2 2-48.4s1.4-49.4 2-56c1.6-18.5 1.5-49.5-.3-53.6-1.8-4.3-6.1-8.3-10.9-10.3-7.2-3-35-4.9-74.5-5-25.6-.1-37.3-.4-37.3-1.2 0-.5-1.3-2.3-2.9-3.8-4-3.8-10.4-4.5-14.7-1.6zm94.4 45c5.1.4 9.5 1 9.9 1.3.3.4 0 8.5-.7 18.1l-1.3 17.5-5.1.5-20.6 2.2c-8.5.9-23.3 1.9-32.7 2.1l-17.3.6v-10.9c0-6-.3-16-.7-22.1l-.6-11.3 29.9.6c16.4.3 34.1.9 39.2 1.4zm718.2-37c-27.8.6-28.6.6-32.8 3-8.9 5-12.5 18.5-9.7 36.5.8 5.5 2.2 21.9 3 36.5l2.5 35.5c.5 4.9 1.2 20.2 1.6 34 .3 13.7 1 26.8 1.6 29 1.8 7.3 10.4 13.5 18.9 13.5 1.4 0 4 .7 5.8 1.6 8.4 4.2 47 2.3 88.1-4.2 21.3-3.4 20.7-3.2 24.7-6.7 12.9-11.3 8-29.4-8.9-33.1l-2.8-.6v-13.3c0-18.2-1.5-33.3-5.1-52.7-2.7-14.2-3.2-19.9-3.9-41-.7-22.1-.9-25-2.8-28.7-2.6-5-6.4-7.9-12.3-9.2-4.7-1.1-21.6-1.1-67.9-.1zm45.4 49.2c.4 7.3 1.9 19.8 3.2 27.8 4.9 28.8 5.4 32.8 6 53.2l.7 20.6-4.4.6c-11.9 1.6-27.5 2.6-38.6 2.6H1756v-13.8c0-7.5-.9-24.3-2-37.2l-3.5-42c-.8-10.2-1.8-19.7-2.1-21.2l-.6-2.8 18.3-.3 26.5-.5 8.1-.2.7 13.2zM685.5 192c-4.9.4-12.6 2.1-20 4.5-10.3 3.2-12.6 4.4-16.1 7.9-2.6 2.5-4.6 5.7-5.3 8.1-1.3 5.2-3.1 19.6-3.1 25.6 0 3.9-.4 4.8-2.6 5.9-4.2 2.3-7.8 9.6-7.8 15.5.1 6.2 2.3 10.5 6.9 14.1l3.5 2.6v10.2c0 11.9 2.8 41.8 4.3 46 1.4 3.9 5.3 8.3 9.1 10.4 2.8 1.5 7.1 1.7 47.4 1.4 41-.2 44.7-.4 48-2.1 6.5-3.3 10.2-9.5 10.2-17.1 0-4.7-1.1-7.3-4.9-11.3-5.7-6.3-5.4-6.2-41.8-6-30.2.2-33.2 0-33.8-1.5-.4-.9-.9-7.4-1.2-14.5l-.6-12.7h17.1c9.6 0 18.3-.5 19.9-1.1 4.2-1.5 10.2-7.9 11.3-11.9 1.8-6.3 3.2-30.1 2.8-45.6-.4-14.6-.5-15.3-3.2-19.4-5.2-7.9-18-10.8-40.1-9zm6.5 43.5v6.5h-7-7v-4.3c0-2.3.4-4.7.8-5.3 1-1.5 6.1-3.2 10-3.3l3.2-.1v6.5zm1704.5 81.4c-7.3 3.4-11.5 10.2-11.5 18.6 0 6 1.9 10.3 6.3 14.2 8.7 7.7 20 6.4 27.2-3.2 3-3.9 4.3-10.7 3.1-17-1.3-6.9-10.7-14.5-18.1-14.5-1.6 0-4.8.9-7 1.9zm-1276.6 20c-8.7 5.4-11.2 17.5-5.6 26 7.1 10.8 25.2 10.8 32.3.1 4.9-7.4 4.3-16.8-1.5-23.4-5.5-6.2-17.6-7.6-25.2-2.7zm2305.1 32c-14.9.7-19.8 2.6-27.4 10.5-11.1 11.6-15.9 30.9-19.6 80.1-2 26.6-3.9 43-10.5 90.5l-4 31c-.6 5.3-1.4 7.5-4.5 12-5 7.2-7.4 15.6-6.6 22.4 1.4 10.8 9.3 21.4 19.3 25.8 12.6 5.5 41.4 8 69.1 5.9l32.2-2c18.3-.9 21.3-1.8 29-8.7 4.5-4.1 7.2-9.3 10.2-19.5 2.5-8.7 2.5-7.5.9-70-1.5-61.7-3.6-105.3-5.7-120.6-1.5-10.8-1.6-12.8-.3-16.5.8-2.4 1.4-7.2 1.4-10.8 0-12-8.1-23.5-19.6-27.7-4.6-1.8-8.6-2.1-28.4-2.5-12.6-.3-28.6-.2-35.5.1zm34.4 65.5c.3 1.3.1 12.3-.4 24.3l-3 93.4c0 9.7-.3 20.3-.6 23.6l-.7 6.1-5.1.6c-2.8.3-9.5.9-15 1.3l-9.8.6.6-4.9c6.4-52.4 8.3-74.9 9.7-111.9.5-16 1.2-30.5 1.5-32.3l.5-3.2h10.8c10.7 0 10.9 0 11.5 2.4zM3248 377.7c-14.4.8-42 3.5-46 4.5-9.7 2.3-17.1 8.2-21.1 16.7-3 6.2-3 17-.1 22.8 4.9 9.5 11.5 14.4 23.3 17 5.8 1.3 12.8 1.6 32.3 1.6h24.8l-.7 5.1c-1.6 12.4-2.4 22.1-3 36.1-1.7 43.6-4.1 76.9-10 138.5l-6.5 76-2 33c-1.6 25.1-2.9 78.3-3.1 125.5l-.8 49.9-.6 5.8-7 1.9c-3.8 1-10.1 2.5-13.9 3.4-9.7 2.2-14.8 4.6-20.5 10-6.7 6.3-9.5 12.8-9.5 22.5 0 4.7.6 8.9 1.6 11.2 2.3 5.3 9.4 12.6 15.3 15.6 4.7 2.6 5.7 2.7 18 2.6 8-.1 14.7-.7 17.5-1.6 4.3-1.3 4.7-1.3 9.4 1.1 5.7 3 15.4 3.9 21.3 2.1 2.1-.6 6.2-2.8 9.1-4.7l5.3-3.6 12.7 1.2c18.6 1.7 22.9 1.5 28.8-1.3 12.1-5.6 18.8-15.7 18.8-28.6.1-9.5-3.2-16.8-10.5-23.4-6.3-5.6-13.3-8.3-25.7-9.7l-9.8-1.2c-.3-.9 1.6-166 2-168.2.3-1.7 1-14.9 1.6-29.5s1.8-35.3 2.6-46l2.9-40c3.7-50.6 4.5-73.1 4.5-127.8v-55.3l3.8.7c2 .3 6 1.2 8.7 1.9 8.3 2.3 12.7 2.6 18.3 1.5 7.3-1.3 11.9-3.7 16.5-8.3 9.2-9.2 11.9-24.5 6.3-35.5-7.4-14.7-22.3-21.3-52.5-23.2-14.3-.9-48.8-1.1-62.1-.3zm-293.3 5.3c-2.1.6-5.2 1.8-7 2.7-1.8 1-6.3 2.3-10.1 2.9-4 .8-8.7 2.4-11.4 4.1-5 3.1-10.6 10.5-12.2 16.1-1.8 6.6-3.3 23.5-2.7 32.2 1 14.6 7.1 45 19.2 95 11.4 47 21.2 100.2 28.9 156 3.5 25 4.4 34 8.6 80.5 2.5 27.2 5.9 55.2 10 80 1.6 9.9 4 27.4 5.5 39 6.8 55.5 10.7 79.1 14.5 86.5 2.9 5.7 8.5 10.9 14.9 13.9 4.8 2.2 7 2.6 15.6 2.7 10.9.1 24.3 2.3 34.5 5.7 5.8 2 8.6 2.2 25 2.2 18.2 0 18.6-.1 25-2.9 3.6-1.5 8.8-3.3 11.5-3.8 15.5-3 22.9-7.9 28.2-18.6l2.8-5.7-.2-46.5c-.2-49.5-.8-56.1-5.4-65.7-2.7-5.5-8.8-11.5-14.7-14.4-3.8-1.9-6.4-2.4-13.2-2.4-10.3 0-15.9 2.4-22.6 9.8-5.9 6.6-7.9 12.9-7.4 23.7.2 4.7.4 20.9.5 36v27.5l-3.8.3c-2.1.2-6.6-.6-10-1.7s-8.9-2.3-12.2-2.6c-8.2-.8-14.5-2.5-14.5-3.9 0-3.2-9.1-73.7-10.9-84.2-4.9-28.9-7.9-54.1-12.1-101.4-3.4-37.9-8.4-76.1-16-120.5-8.3-48.4-14.1-75.7-28.4-133-9-36.3-11.1-45.4-10.4-46 .3-.3 17.8 0 38.9.6l55.7 1.6 17.2.4v8.7c0 16 2 37.5 4 44.3 2.4 8.1 8.7 15.7 16.4 19.7 4.5 2.4 6.2 2.7 14.6 2.7 7.8 0 10.2-.4 13.5-2.2 5.2-2.8 11.7-9.6 14.6-15.3 2.7-5.2 2.8-8.4 1.4-47.5-.7-21.4-.6-24.8 1-31 3.1-12.5.1-23-8.9-31.3-7.7-7.1-11.7-8.3-38.6-11.2-4.7-.5-16.4-1-26.1-1s-23.2-.4-30-.9c-18.2-1.4-88.7-2.2-93.2-1.1zm-550.4 2c-10.6 2.2-19.5 8.7-24.1 17.4-2.6 5.1-3.2 11.8-2.2 24.1.2 2.3-.5 5.9-1.5 8.5-1.6 3.9-1.9 8.2-2.3 34.1-.4 28.9-.3 29.7 1.8 34.8 5.7 13.1 21.4 19 34 12.6 4.9-2.5 8.2-6.1 11.6-12.5 1.6-3 1.9-6.7 2.2-25.8l.4-22.4 8.1.7c4.5.4 10.8 1.8 14.2 3 7.2 2.8 7 1.4 2.7 21.6-2.1 9.9-4.8 29.6-8.2 61-10 91-15.6 127.6-28.1 184.3-15.7 70.7-26.8 142-29.9 191.6-.6 9.6-1.7 22-2.5 27.5-2.9 19.9-1.3 28.2 7.5 37.8 12.8 14 33.7 15 47.7 2.4 8.5-7.7 12.7-21 14.3-44.9 2.3-35.3 4.1-52.4 9.6-90.8 4.1-29.1 11.5-69.3 18.6-101 15.2-68.9 23.5-125.5 32.3-220l4-40c.8-6.9 1.5-14 1.5-15.8v-3.4l13.9.4c7.7.1 14.2.6 14.6 1 .4.3-.8 6.9-2.6 14.5-2.8 11.9-3.3 15.7-3.3 27.3-.1 13.1 0 13.7 3 20 6 12.7 13.1 18 24 18 11.2 0 24.2-9.4 31.1-22.5 7.5-14.3 18.9-53.5 19.9-68.3.9-13.8-.8-26.9-4.3-33.3-5.5-10.1-15.7-16.8-28.3-18.4-3-.4-8-1.3-11.1-2.1-9.9-2.5-30.9-4.4-62.6-5.8l-30.8-1.3-9.2-3.6c-10.8-4.2-21.9-6.7-30-6.7-3.2 0-8.8-.9-12.5-1.9-8.3-2.4-18-3.2-23.5-2.1zm293.7 24.5c-4.6 2.1-8.7 6.1-11.2 11-3.2 6-3.4 15.6-.8 34 2.5 18.6 3.8 24.9 11.8 60 19.7 85.4 31 145.2 33.7 178.5 3.2 39.1 7.9 75 12.1 93.5 1.4 6 5.4 25.6 9 43.5l8.4 40c1 4.1 3.2 14.5 5 23 1.7 8.5 4.4 20 6 25.5l3.9 14c1.4 5.4 6.1 12.6 10.3 15.8 1.9 1.5 7.5 4.5 12.5 6.7 7.6 3.3 10.1 4 15.6 4 7.4 0 10.5-.9 16-4.8 7.2-4.9 12.7-16.2 12.7-26.2 0-2.6 1.1-4.9 4.3-9 4.2-5.3 6.9-7.9 30.8-29.4l10.7-9.5.5 3.7c.4 2 1.3 16.5 2.2 32.2 1.8 32.1 3.1 40.3 7.8 48.1 5.5 9.2 17.2 15.9 27.8 15.9 11.1 0 22.3-7.9 27.4-19.2l2.8-6.3-1.7-26.5c-3.7-57.6-4.2-61.5-9.5-84-8-33.8-18.1-98.1-32.7-207.5-10.9-82.6-18.5-121.7-32.4-167.5-3.2-10.7-6.2-21.3-6.6-23.5-.7-4.2-7.4-22.7-10-27.7-4.2-8.1-16.4-9.1-22.1-1.8-2.3 2.9-10.2 23.7-11.4 30.1-1.8 9.8-1.4 31.4 1 46.9l6 39c5.7 36.7 8.9 59.5 10.5 75.5 5.5 53.3 12.9 111.2 21.6 168.9l5.1 33.8-6.8 7.6c-10.9 12.3-28.1 29.2-38 37.5l-9.2 7.8-1.2-4.3c-1.6-6.3-7.3-33.2-10.4-49.3-1.4-7.7-4.1-20.5-6-28.5-4.1-17.8-7.6-41.5-11-75l-4.1-38c-2.4-19.4-12-69.2-18-93.2-16.4-66.4-42.5-149.6-49.7-159.2-4.9-6.3-15.7-9.2-22.7-6.1zm-893 6.6c-5.2.4-16 1.5-24 2.3l-29.4 2.7c-8.2.6-20.1 2.2-26.5 3.5-12.6 2.7-39.7 4.8-80.6 6.4-13.2.5-30.3 1.6-38 2.5-7.7.8-25.9 2-40.5 2.5-27.1 1.1-31.5 1.7-38.5 5.2-6.3 3.2-24.1 21.8-27.1 28.1-5.7 12.6-5.6 20.3 1 52.7 8.6 42.1 14.4 77.8 18.1 111.5l3 26c1.7 14.1 5.9 58.1 8.1 84.5 3.4 42.6 7 72.4 14 117l5 33.5c2.1 16.2 5.2 32.8 7.9 43 1.4 5.4 2.8 14.6 3.4 23.1.6 7.7 1.8 16 2.6 18.5 5.1 14.6 20.7 24.3 36.5 22.5 4-.5 6.8-.2 10 1 9.9 3.6 158.3 4.5 171.8 1 8.5-2.2 13.6-5 18.6-10.1 4-4 5.9-7.1 12.9-20.9 3.8-7.5 4.3-14.2 2.8-37.1-1.6-24.6-4.2-33.5-11.8-40.7-7.7-7.3-20.8-9.2-30.7-4.4-10.1 4.9-14.8 13.2-17.1 30.2l-2.1 14.1-.5 3.3h-25.2c-13.9 0-42.3-.3-63.3-.7l-38-.6-3.2-13.1c-3.4-13.5-5.6-25-6.7-34.6-.4-3-2.6-18.1-5-33.5-7.1-45.2-10.7-73.9-13.5-109-7.8-96.3-18.6-175.4-31.2-227.2-1.8-7.3-3-13.4-2.8-13.7.3-.2 7.9-.9 17-1.5l30.5-2.7c7.7-.8 25.5-1.9 39.5-2.4l30-1.5c2.5-.3 12.6-1 22.5-1.5 11.8-.7 22-1.9 29.7-3.5 10.4-2.1 21.5-3.4 44.4-4.9l7.2-.5.3 15.7c.4 14.8.6 16 3.2 21.3 3.4 6.9 10 13.2 17.5 16.7 7.7 3.6 19.3 3.7 26.4.3 7.4-3.6 13.3-9.4 17-16.9l3.3-6.7v-38-38l-2.8-5.7c-1.7-3.4-5-7.7-8.2-10.7-9.1-8.3-18.8-10.6-37.5-9zm-926 6.4c-14.1 1.4-29.7 4-58.5 9.8-9.3 1.9-21.1 3.9-26.1 4.5-10.5 1.2-15.9 3.5-22.2 9.6-6.8 6.4-9.5 12.5-10 22.6-.3 6.5 0 9.5 1.2 12.5 3.8 8.9 19.3 90.5 26.6 139.5l6.6 41.4 6.4 41c11.5 79.3 18 118.9 26.9 162.6 4.1 20.1 7.7 46.1 9.6 68 .8 10.2 2 20.6 2.5 23.3 3.1 15.3 16 26.7 31.9 28.2 3.6.4 9 1.5 11.9 2.6 5 1.8 8.7 1.9 64.5 1.9 61.1 0 82.4-.9 96.2-3.8 5.6-1.2 10-1.5 14.5-1.1 3.6.4 14.2.7 23.7.8 21.8.1 25.7-1 34.9-10.3 8.7-8.8 10.7-14.5 10.8-29.6v-11.5l-8.8-21-15.8-36-15.8-34.7c-13.8-30.8-20.9-41.6-30.3-46.3-15.2-7.4-31.7-1.4-39.4 14.3-2.5 5.1-2.8 6.8-2.8 15.7 0 9.6.2 10.7 5.8 27 6.2 18.1 7.3 20.8 18.3 45.8l7.1 16.2-7.3 1.1c-4 .7-7.8 1.5-8.4 1.9-3.3 2.1-34.3 3.4-78.6 3.5h-47.1l-.7-7.3c-1.4-14.6-5.9-42.9-10.7-67.7-8.7-44.5-11.6-61.4-19.9-115.6l-11.1-70.8c-1.7-9.8-2.7-18.2-2.2-18.6 1-.8 14.8-3.7 41.3-8.5l23.5-4.6c2.2-.6 8.3-1.5 13.6-1.9 5.9-.5 11.3-1.5 14.1-2.8 5.4-2.4 11.9-8 15-13 1.2-2.1 5.5-6.9 9.4-10.7 8.7-8.6 11.4-14.6 11.4-25.9 0-9.4-1.9-15.4-12.9-41.4-4.9-11.4-11.4-27.5-14.6-35.7-3.2-8.3-7.5-19.1-9.7-24l-7.3-16.8c-4.3-9.9-8.8-15.5-15.6-19.1-3-1.6-7.5-4.9-10.1-7.3-9.4-8.7-17.7-10.2-41.8-7.8zm11 74.2l10 26.3 11.5 28.8c2.1 4.6 3.3 8.8 2.9 9.2-.5.5-9.7 2.5-20.4 4.5l-29 5.5c-9 1.9-16 2.6-16 1.6 0-2.5-10.7-51.7-13-59.9l-3-11.6c0-1.7 40.2-9.8 50.1-10l4.6-.1 2.3 5.7zm-305.3-64.3c-9.6 2.7-17.7 10.6-21.6 21.1-1.3 3.5-2.5 10.3-3.2 17.9-1.1 12.3-1 15 3.1 65.6.5 6.9 1.4 39.3 2 72l2.1 93.5c.6 18.7 1.4 101.9 1.8 185l.6 151 2.6 5.6c3.7 7.9 9 13.3 16.7 17.1 5.8 2.9 7.6 3.3 14.7 3.3s8.8-.4 14.7-3.3c10.5-5.1 16.9-13.9 18.8-25.8.6-3.3 1-11.1 1-17.5 0-11 .1-11.8 2.3-13.2 1.2-.8 7.2-5.6 13.2-10.7 6.1-5.1 13.7-11.1 17-13.3s11.2-7.7 17.5-12.2 15.8-10.6 21-13.5c13.5-7.6 26.1-15.3 36.5-22.5 5-3.4 11-7.2 13.4-8.5 6.5-3.3 13.4-10.2 16.6-16.7 3.3-6.9 4.4-17.3 2.5-24.3-.8-2.8-1.3-12.2-1.5-25-.1-14.6-.6-22.8-1.8-28.5-.9-4.4-2.6-18.6-3.7-31.5l-4.5-43c-1.3-10.7-3.1-28.7-4-40-4.2-55.3-14.3-149.9-16.9-158.3-4.2-13.8-15.1-23.1-31-26.3-3.9-.8-9.5-2.4-12.4-3.5-3-1-9.9-3-15.5-4.3-11.2-2.7-34.8-10.6-48.2-16.3-5.9-2.4-8.9-4.2-9.5-5.7-.4-1.1-1.5-10.7-2.4-21.2-1.8-20.9-3-26.5-7.5-33.5-7-11.1-22.1-17-34.4-13.5zm64.9 150.9c7.7 2.5 17.4 5.2 21.6 6.2 4.2.9 8.3 2.2 9.1 2.8 1.3 1.1 4 21 6.2 46.7l3 29 3.4 36.5 2.1 27c.6 7.7 2 21 3.1 29.5s3.1 27.6 4.4 42.5l3.9 35.5c.8 4.7 1.7 13.2 2.1 19 .3 5.8.8 11.6 1.1 13 .4 2.4-.5 3.3-10.3 9.7-5.9 3.8-17.3 10.7-25.3 15.2s-19.4 11.8-25.5 16.2l-11 8.1-.6-105.9-1.7-136.8-1.8-65.4c-.6-30.4-.5-34.3.9-33.8.8.3 7.7 2.6 15.3 5zm378.7-149.9c-5.2 1.7-8.8 4.2-18.5 12.9-10.8 9.7-13.3 14.9-13.3 27.7 0 10.8-2.7 3.9 22.5 57 12 25.2 21.3 46.3 29 65.5 7.6 19.1 23.5 56.1 41 95.5 8.9 20.1 21.5 50 28 66.5l23 57c11.1 26.6 20 50 30.5 80.5 2.9 8.5 7 18.9 8.9 23 2 4.1 3.6 8.2 3.6 9.1s.9 4.7 2 8.3c1.6 5.1 3.3 7.9 7.4 12.3 8.6 9.3 18.5 13 30.3 11.3 7.4-1 11.2-2.9 17.3-8.6 13-12.2 14.5-34.8 3.9-56.6-2.7-5.5-7.7-18-11-27.7-9.1-26.4-18.1-50.1-25.8-68.3-7.4-17.5-22-53.5-32.1-79.3-3.4-8.8-11-26.6-16.7-39.5l-11.3-25.6c-.8-2-.7-2 6.8-.7 5.3.9 25.3 1.5 64 1.9l56.3.7 1.5 3.6c.9 2 2.9 7.2 4.5 11.6 1.7 4.4 6.1 14.5 9.9 22.5 9.7 20.7 19.9 46.6 26.5 67.5 13.5 42.7 17.7 55.1 24.7 73 7.5 18.9 14.1 38.1 17.4 50.5 3 11.2 8.1 22.8 19.7 44.5 6.2 11.5 12.1 23.2 13.3 26 6.1 14.7 11.4 21.4 20.3 25.9 12.6 6.4 27.4 4.8 37.1-4 8.5-7.7 12.6-17.9 11.8-29.3-.6-7.4-6.7-23-14.7-37.6-15.2-27.7-18.3-33.9-20.7-41.5-8-25.7-13.6-41.8-21.4-62-4.8-12.4-10.3-27.9-12.4-34.5-15.7-50.7-25.5-77.4-39-106-6.4-13.5-17.9-42.8-19.7-50.2-2.8-11.2-9.9-20.3-19.8-24.9-6.4-3.1-17.3-4.3-37.9-4.4h-14.4l.7-21.3c.3-11.6 1-26.4 1.6-32.7.5-6.3.9-15.3.9-20 0-11.8-3.5-33.1-6.4-39.6-4.2-9.2-13.7-17.7-22.8-20.5-5.2-1.6-39-3-93.3-3.8-49.9-.7-50-.7-62-3.5-11-2.6-15.1-4.1-27.4-10.6-5.4-2.9-17.4-3.7-23.8-1.6zm121 84.5l57.3 1.4c.3.2-.2 5.1-1.1 10.8-1.5 10.5-2.7 20.6-4.5 39.9l-1.6 13.7-.5 3.3h-17.7c-11.2 0-21.2-.6-27.2-1.6-13.3-2.1-30.1-2.9-34.1-1.5-1.8.6-3.4.9-3.6.7s-3.9-8.4-8.2-18.2c-4.3-9.9-11.3-25.1-15.5-33.8l-7.6-16.4c0-.2 1.7-.2 3.8.2 2 .4 29.3 1.1 60.5 1.5zm-1112.8-60c-8.8 2.3-12.8 6.4-19.4 20.1C8 496.9 7.2 507.5 6.4 633.5 5.9 718.2 5.4 738.2 2 807c-.7 12.7-1 52.6-.8 97l.3 75.5 2.5 5c3.4 7.1 11.7 14.9 18.4 17.4 16 6 31.3 2.6 46.1-10.1 7.6-6.5 40-30.9 48-36 3.3-2.2 15-8.3 26-13.7 11-5.3 24.7-12.7 30.5-16.2 11.2-7 21.9-13.1 22.2-12.7 0 .2.4 10.2.7 22.3.6 20.6.8 22.3 3.1 27 3.6 7.4 11.4 14.7 18.5 17.4 17.5 6.6 35.4-.8 43.4-17.8 2.5-5.3 2.6-6.6 2.9-24.1.4-18.7-1.1-59.4-2.8-77-1.1-11.4-2.5-33.5-4.5-72.1-2-39.3-6.3-85-10.6-113.3-2.9-19.6-13.8-73.5-26.3-130.6-2.5-11.3-5-24.6-5.6-29.5-3.1-25.3-7.8-35.8-18.8-42.2-3.9-2.3-5.8-2.7-11.7-2.7-8 0-11.5 1.5-17.1 7.1-8.1 8.1-12.5 23.6-12.5 44.2 0 16.6 2.4 33.3 18.1 122.6 3.3 18.7 6.9 41.3 8 50.3 3.1 25.6 6.8 70.9 8.5 103.2l2.1 41.9.7 12.4-2.9-.8c-15.3-4.1-23.5-1.8-47.7 13.4-5.1 3.3-19.2 10.9-31.3 16.9-12 6.1-25.9 13.5-30.8 16.6-4.8 3.1-9 5.6-9.2 5.6-.7 0-.3-54.2.6-80l2.7-54.5c1.5-24.7 1.8-43 1.7-124-.2-118.6-1.3-143.2-7.3-161.3-1.1-3.1-2.2-7.3-2.5-9.3-.9-5-5.6-11.2-10.8-14.3-4.7-2.7-12.5-3.9-17.3-2.7zm251.9 2.5c-12.2 4-21.2 15.1-23.4 28.9-1.2 7.8-.7 14.3 2.5 29.2 3.7 16.9 11.3 69.8 14.5 101 6.7 64 14.3 115.3 26.5 180 5 26.4 14.1 65.1 23.1 97.8 4.5 16.3 5.3 21 6.4 38 .7 11.1 1.3 14.8 3.3 19 4.5 9.9 11.9 16.2 22.2 19.2 16.3 4.8 32.8-3.1 40.3-19.3 2.5-5.3 2.7-6.6 2.6-19.7 0-17.2-2.3-32.4-7.4-51-6.4-23-17.8-70.3-21.5-89.3-11-55.6-24.2-142.9-24.8-163.5l-.2-8.2 38-19.2 54.2-26.6 16.1-7.4.6 14.1c1.2 27.1 2.6 116.4 2.6 165.3 0 66.4 2.5 120.8 7.1 156.3 1.1 8.5 2.4 25 2.9 36.7.7 19.5 1 21.5 3.3 26.6 3.5 7.7 8.8 13.2 16.5 16.9 6 3 7.5 3.3 15.2 3.2 6.7 0 9.5-.5 13.1-2.3 11.8-5.7 18.3-15.3 20.1-29.8 1.4-11.7.4-33.2-2.6-56.3-5.1-38.5-6.6-74.9-7.6-185.5-1.2-123.4-3.5-197.2-6.5-207.2-3.3-10.9-12.1-20-21.8-22.7-16.4-4.4-27.9-4.5-36.9-.3-2.9 1.3-10 5.9-15.8 10.2-7.8 5.8-15.7 10.3-31 17.7l-48.7 24.1c-15.5 7.8-28.4 14-28.6 13.7-.3-.3-1.5-7-2.6-15-1.2-8-3.1-19-4.2-24.5s-2.7-14.2-3.4-19.3c-2.3-15-8.3-23.5-20.3-29-6.7-3-17.6-3.9-23.8-1.8zM3044.2 534c-15.1 2.3-26.2 13.8-26.5 27.4-.2 11.1 2.5 31.9 5.4 42 1.8 6.3 3.2 13.6 3.5 19.6.7 10.8 2.6 16 7.5 20.9 9.2 9.2 23.6 9.6 32.7.8 1.9-1.8 4.3-5 5.5-7.2 3.4-6.6 3.5-24.7.1-37.1-.5-2.1-.3-2.1 3.8-1.3 2.3.4 6.3.8 8.8.9h4.5l-.3 77.2.6 90.9c.8 12.1 1.2 14.2 3.8 18.9 3.7 6.9 11.1 13.4 17.7 15.6 15.7 5.3 30.9-.9 38.9-15.8l2.3-4.3.3-89.8.2-89.7h10.1 10.1l-.9 10.2c-.9 11.7-.7 19.7.7 23.2 1.4 3.7 6.9 9.5 11.2 11.7 5.2 2.7 14.2 2.7 20 .1 4.9-2.2 12.3-9.7 14.4-14.7 3.4-8.3 4.2-49.3 1.2-64.5-2.4-12.4-10-22-20.5-26.1-5.4-2-8.2-2.2-40.8-3-48-1.2-72.7-2.4-81-4.2-8.8-1.9-26.3-2.8-33.3-1.7zm-973.5 5c-5.9 1.5-13 5.5-31.2 17.5-23.5 15.5-70.4 44-75.8 46.1-1.2.4-1.5-1.9-1.9-13.3-.6-15-1.8-19.2-7.7-26.4-7.5-9.1-23.5-12.7-34.2-7.6-8.9 4.1-15.6 12.2-17.8 21.7-.6 2.5-2 13.5-3.1 24.5l-3.9 38-3.1 32-7.5 86.5c-4.8 50.1-6.2 85.1-7.8 193-.1 8.5.1 10 2.5 14.5 3.5 6.8 9.7 12.8 16.6 16.2 4.9 2.4 6.9 2.8 14.2 2.8s9.3-.4 14.2-2.8c7.3-3.6 14.9-11.9 17.9-19.5 2.2-5.6 2.3-6.8 3-61.7.7-54 1.8-86.7 4-112l6.5-83.5 1.7-26.6 6.1-3.7c3.4-2 9.3-5.7 13.1-8.1l30.5-17.8 38.8-23.2c9.9-6.2 15.2-9 14.8-7.9-1.1 4.1-4.8 23.9-7.1 39.3-4.7 30.2-13.6 71.4-24.1 111.5-4.9 19.1-10.9 49.7-13.9 71.7l-4.6 33.3c-1.1 7.7-3.1 23.9-4.5 36-2.4 21.3-2.6 22.2-6.2 29-3.5 6.6-3.7 7.5-3.7 16 0 8 .3 9.5 2.7 13.6 6 10.1 15.1 15.4 26.8 15.3 6.4 0 8.3-.4 12.8-2.9 6.9-3.8 14.6-11.5 17.7-17.9 3.3-6.8 6-20.9 8.5-45.2 1.1-11 2.7-24.4 3.5-29.9s2.1-17 3-25.5c3.4-33.4 4.7-41 17.8-103.5 7.2-34.3 12-64 15.7-97l5-42c4-29.8 4.2-33.5 3.2-47-1-14.5-2.4-18.3-8.7-24.8-6-6.1-12.7-9-22-9.3-4.4-.2-9.7.1-11.8.6zm130.8 1.9c-12.8.9-20.2 2.5-26.5 5.6-6.6 3.3-21.6 16.8-24.1 21.7-4.1 8.1-15.9 59.9-17.4 76.8-.4 3.6-1.4 10.3-2.2 15-1.2 6.2-1.6 15.2-1.7 33.5-.1 24.2 0 25.1 2.2 29.3 3.2 6 9.5 12 15.6 14.8 6.8 3.1 14.5 4 52.1 5.9l46.6 3c8.6.8 18.8 1.5 22.7 1.5h7.1l-2.5 8.7L2258 814c-4.6 19.8-14.4 55.7-20.6 75.5-1.9 6-4.6 17.2-5.9 24.7-3.6 19.8-3 18.8-11.7 18.8-4 0-9.1.5-11.3 1.1s-8.7 1.2-14.5 1.4-12.5.8-15 1.4-10 1.1-16.6 1.1h-12.1l1.3-5.8c2.4-10.2 5.4-29.2 5.4-34.6 0-6.5-5.1-17.6-10.6-23.1-10.2-10.2-26-10.9-36.7-1.5-5.9 5.3-8.1 10-11.1 24.5-7.3 35.3-8 57.6-2 70.2 1.3 2.8 2.4 6.4 2.4 8 .1 6.7 6.3 15.6 14.7 21 9.2 5.8 14.3 6.6 45.8 6.7 25.1.1 28.9-.2 37-2 8.1-1.9 10.3-2 22-1.2 7.2.5 18.9.6 26 .2 15.9-.8 22.3-3.2 29.7-11.1 5.7-6.2 7.4-9.4 13.8-26.8 5.4-14.6 7-20.5 10.1-37.7 1.1-6 3.3-15.1 4.9-20.1 4.5-14.3 13.6-48.5 17.6-66.2 2-8.8 6.9-29.1 11-45 10.4-41.3 12.5-55.2 10.6-71.4-1.9-15.8-12.7-32.2-24.8-37.8-7.1-3.2-15.1-4.2-34.4-4.3-8.6 0-19.4-.5-24-1.1-4.7-.6-22.7-1.8-40-2.7l-31.5-1.7.3-8.5c.2-4.7 1.4-14.4 2.7-21.5l3.5-21c.6-4.4 1.6-9.7 2.1-11.8l1-3.8 15.2.6c8.4.3 19.5 1 24.7 1.5 5.2.6 17.9 1.3 28.2 1.6l18.8.6 1.1 4.2c1.8 7.1 2.1 8 4.4 12.6 2.9 5.7 10 12.3 15.1 14.1s16 1.6 20.5-.3c5-2.2 10.7-7.4 13-12.1 4.9-9.4 6.2-25.3 3-35.8-1.1-3.5-2.6-9.2-3.5-12.5-.8-3.4-2.4-7.7-3.5-9.5-1.2-1.9-2.1-4.1-2.1-5 0-3.1-7.8-13.7-12.6-16.9-8.5-5.9-13-6.7-42.4-7.5-14.6-.3-29.2-1-32.5-1.5-9.3-1.4-30.8-1.9-43-1.1zm409 32.1c-4.4.5-17.7 1.4-29.5 1.9-29.6 1.5-39.4 3.2-46.2 8.4-4.9 3.8-10.3 11.2-11.8 16.5-.6 2-1.5 14.5-2 27.7-.7 20.6-1.4 27.6-5 49.5-5.6 35.2-6.8 45.8-8 76.6l-5.6 95.4c-.8 12.4-2.4 27.7-3.6 34l-2.9 16c-.4 2.5-1.1 11.5-1.4 20-.5 10.2-1.3 17.9-2.6 22.6-3.8 14-1.9 24.8 5.8 33.4 2.5 2.8 6.9 6.3 9.7 7.8 4.4 2.3 6.3 2.7 14.1 2.7s9.7-.4 14.1-2.7c5.6-3 11.3-8.8 14.3-14.6 1.1-2.1 3.1-7.8 4.6-12.7 2.3-7.7 2.8-11.8 3.5-29.2.4-11.1 1.1-20.6 1.4-21.1 1.2-2 4.7-25.3 5.6-37.5l6-100.7 1.3-31.8c.1-1 2.7-1.5 9.2-1.8 5-.3 13.5-1.5 19-2.6 15.2-3.2 19.1-3.6 30.3-3.7 7.4-.1 10.4.2 10.6 1.1.4 1.4 4.4 46.1 5.7 62.3.8 11.6 2.6 71 3.9 133.5 1 48 1.5 52.4 7.3 62.1 3.6 6 11.3 12.3 17.2 14.1 6.8 2.1 17.3 1.5 22.9-1.2 13.9-7 20.4-20.8 17.7-37.6-.6-3.8-1.5-33.6-2.1-67.4-1.2-72-2.2-96.4-5.5-133-1.3-15.1-2.8-37.6-3.2-50-.8-20.8-1-22.9-3.2-27.4-4.9-10-14.9-16.9-26.7-18.4l-5.9-.7-.3-6.5c-1-26.1-6.1-60-10.3-68.2-2.9-5.7-9.3-11.6-15.8-14.6-4.6-2.2-7.3-2.7-15.1-2.8-5.2-.1-13.1.2-17.5.6zm-6.1 67.7c.3 1.6.8 7.9 1.2 14 .6 11.1.6 11.3-1.6 11.3-1.2 0-6.7 1.1-12.2 2.5s-10.2 2.5-10.3 2.3c-.2-.2.1-2.6.5-5.3.5-2.8 1.2-10.1 1.6-16.3l.7-11.2h9.8 9.7l.6 2.7zM1671 619.1c-28.4 1.5-42.8 7.6-49.6 21.2-2.4 4.7-2.5 5.7-2.6 23.6 0 11 .6 24.5 1.6 33.1l4.1 38.7c3.6 35 6.5 48.5 13.7 62.6 4.3 8.6 12.5 16.8 20 20.2 7.4 3.3 17.9 3.7 25.7.9 4.6-1.6 6.5-1.6 31.3-.3 14.4.8 38 1.4 52.3 1.4 24.9 0 26.2-.1 30.9-2.3 2.8-1.2 6.4-3.3 8.1-4.6 1.6-1.3 5.4-3.3 8.2-4.6 6.2-2.7 13.6-10.1 16.5-16.8 2.4-5.2 2.4-5.4 1.3-39.7-.8-23.1.1-35.9 4.2-66 3.4-24.9 3.7-29.3 2.4-37.3-3.1-18.2-14.4-29.1-30.3-29.2-4.3 0-8.5.7-11.6 1.9-4.9 2-5 1.9-12.3 0-12.7-3.4-73.7-4.9-113.9-2.8zm95.3 69.1c3.2.6 6 1.4 6.2 1.8.3.4-.4 8.4-1.5 17.6-1 9.3-2.2 23.4-2.6 31.3l-.7 14.4-16.6-.9c-9.1-.5-26.6-.7-38.8-.6l-22.1.4-1-5.4c-.6-2.9-2-12.5-3.2-21.3s-3-20.7-4.1-26.5l-1.9-11.8c0-1 7.8-1.2 40.3-.7 22.4.3 42.8 1.1 46 1.7zm1594.2-1.2c-8.9 1.4-16.8 7.9-20.6 16.7-2.8 6.5-4.1 16.1-4.1 30.3-.1 10.9.3 14 3 24 3.6 13.3 6.1 27.9 9.7 54.5 1.4 10.4 3.4 23.5 4.5 29 5.1 26.1 6.4 36.7 8.1 63 .5 9.3 1.4 19.9 2 23.5.5 3.6 1.6 13.2 2.4 21.4 1.9 18.9 4.5 28.7 9.3 35.1 14.7 19.4 43.1 16.7 53.4-5 3.1-6.7 3.6-13.9 1.8-27.5-3.4-25.2-5-41.1-7-68.7-1.1-15.8-3.5-32.8-7-49.3-1.1-5.2-2.6-13.4-3.4-18.3l-1.3-8.7 9.6-7.1c5.3-3.9 12.8-8.7 16.6-10.6a205.3 205.3 0 0 0 12.2-6.9c2.8-1.8 7.1-4.3 9.4-5.4l4.2-2.2-.7 5.9c-1 9.7-2.5 47.6-3.6 91.3l-1.5 47c-.3 3-1 14.5-1.6 25.6-1 17.8-.9 20.8.5 25.7 5.1 17.7 26 27.2 42.7 19.5 7.2-3.3 12.5-8.6 16.1-16.3 2.7-5.9 2.9-7.3 4.3-30.1 3.3-55.7 5.1-191.7 2.7-209.2-2.3-16.8-7.7-26.2-17.6-30.8-4.5-2.1-6.6-2.4-17.1-2.4h-12l-14.2 6.4c-14.7 6.6-31.5 15.3-41.8 21.6-6.2 3.8-21.1 12-21.8 12-.8 0-2.6-11.4-3.2-19.7-1.1-16.5-6.6-26.8-16.8-31.6-5.9-2.9-11.4-3.7-17.2-2.7z"/></svg>